<?xml version="1.0" standalone="no"?>
<!DOCTYPE svg PUBLIC "-//W3C//DTD SVG 20010904//EN"
 "http://www.w3.org/TR/2001/REC-SVG-20010904/DTD/svg10.dtd">
<svg version="1.0" xmlns="http://www.w3.org/2000/svg"
 width="5000.000000pt" height="5000.000000pt" viewBox="0 0 5000.000000 5000.000000"
 preserveAspectRatio="xMidYMid meet">

<g transform="translate(0.000000,5000.000000) scale(0.100000,-0.100000)"
fill="#000000" stroke="none">
<path d="M14975 33718 c-418 -26 -689 -101 -891 -244 -211 -149 -394 -479
-626 -1129 -254 -711 -288 -868 -288 -1350 0 -132 7 -361 15 -510 8 -148 15
-403 15 -566 0 -917 104 -1471 373 -2004 123 -244 266 -441 608 -840 273 -318
353 -424 669 -880 313 -453 481 -665 671 -850 350 -340 698 -500 1229 -567
135 -17 759 -17 1000 1 491 34 891 103 1213 209 48 15 86 25 85 21 -2 -3 -123
-130 -269 -281 -399 -413 -602 -641 -774 -868 -127 -168 -174 -269 -255 -551
-83 -287 -126 -367 -344 -639 -162 -201 -204 -262 -272 -399 -110 -220 -170
-437 -289 -1036 -119 -606 -139 -676 -335 -1210 -268 -730 -316 -933 -307
-1290 4 -170 7 -202 35 -307 145 -556 553 -885 1340 -1082 129 -32 239 -55
599 -120 167 -31 398 -79 515 -107 409 -97 631 -138 1243 -229 670 -99 1006
-163 1322 -249 220 -61 327 -99 658 -235 524 -216 757 -275 1035 -263 222 10
359 66 495 202 66 65 89 97 128 175 86 176 112 331 104 615 -9 318 -52 524
-227 1090 -180 585 -217 787 -315 1730 -43 414 -89 741 -201 1415 -149 904
-193 1198 -234 1560 -86 769 -88 1340 -5 2215 49 515 55 582 70 725 9 80 20
188 25 240 19 188 40 478 47 638 3 89 9 162 13 162 3 0 31 -13 61 -29 30 -17
90 -40 134 -53 88 -25 145 -26 715 -17 282 4 302 2 685 -71 302 -58 372 -68
643 -90 270 -22 378 -38 662 -98 385 -83 564 -104 900 -106 140 0 300 3 356 7
l101 8 12 -43 c17 -56 37 -88 143 -231 49 -66 88 -128 88 -141 0 -12 34 -163
75 -335 222 -927 333 -1528 374 -2031 6 -74 14 -155 17 -180 2 -25 9 -261 14
-525 18 -918 57 -1258 290 -2555 38 -212 101 -576 140 -810 85 -507 141 -792
215 -1098 83 -346 85 -361 85 -706 0 -327 9 -436 47 -566 97 -336 343 -535
777 -629 191 -42 318 -50 666 -46 179 2 341 7 360 9 19 3 222 22 450 41 609
52 742 72 940 140 586 200 1127 643 1669 1365 169 226 274 385 491 745 296
491 394 633 611 885 316 367 363 454 363 670 0 216 -95 494 -330 960 -409 814
-979 1504 -2009 2431 -88 80 -356 316 -595 525 -239 210 -520 459 -625 554
-207 188 -598 561 -593 566 2 1 72 -22 156 -52 448 -159 798 -227 1677 -324
598 -66 737 -87 1330 -206 617 -123 809 -148 1145 -148 383 -1 612 45 865 172
183 91 378 266 493 442 201 306 303 650 369 1255 24 221 24 1094 0 1619 -19
420 -22 921 -6 1206 6 107 11 328 12 490 0 331 -8 419 -73 797 -22 125 -69
406 -105 623 -143 860 -248 1269 -407 1583 -148 291 -332 454 -596 525 -86 23
-115 26 -267 26 -197 0 -271 -10 -647 -90 -514 -109 -827 -156 -1203 -179
-338 -21 -813 -94 -1213 -186 -774 -178 -1449 -429 -2022 -752 -310 -175 -478
-290 -1225 -844 -584 -432 -1017 -718 -1315 -868 -150 -75 -138 -73 -467 -80
-164 -3 -363 -10 -443 -16 -86 -7 -454 -13 -905 -14 -514 -2 -788 -6 -845 -14
-102 -14 -210 -39 -430 -97 -332 -89 -453 -104 -824 -105 -234 -1 -938 31
-1103 50 -95 11 -158 39 -255 111 -166 125 -354 329 -654 710 -276 352 -376
458 -547 587 -226 168 -460 282 -947 458 -118 42 -357 131 -530 197 -173 66
-479 181 -680 255 -789 291 -1348 509 -1674 655 -515 230 -602 262 -886 328
-494 115 -1147 176 -1585 148z m690 -272 c284 -27 502 -60 744 -112 296 -64
434 -112 891 -314 429 -189 845 -354 1485 -590 235 -87 374 -139 1260 -475
482 -183 562 -216 754 -310 354 -174 407 -221 799 -705 277 -342 357 -432 508
-580 138 -135 211 -194 314 -255 36 -21 85 -52 110 -69 l44 -30 211 -8 c115
-4 323 -15 460 -25 161 -11 369 -17 585 -17 445 0 567 16 953 125 310 87 228
81 1132 89 478 4 871 13 960 20 233 19 644 17 800 -4 255 -35 426 -93 549
-187 94 -70 153 -169 180 -299 31 -147 86 -865 86 -1125 0 -329 -50 -668 -126
-848 -78 -185 -265 -378 -629 -650 -241 -181 -394 -273 -525 -316 -154 -50
-481 -72 -780 -52 -222 15 -320 30 -599 90 -364 79 -397 84 -686 106 -234 18
-364 37 -685 99 -129 25 -289 52 -355 61 -139 19 -395 21 -570 6 -315 -28
-480 2 -574 104 -65 71 -76 120 -75 340 0 120 7 236 18 315 26 193 33 531 27
1308 l-6 714 -37 34 c-34 30 -44 34 -94 34 -50 0 -59 -3 -89 -33 -24 -24 -35
-46 -40 -78 -3 -24 -5 -353 -3 -732 2 -378 2 -687 0 -687 -19 0 -83 48 -152
114 -105 101 -110 105 -350 253 -108 67 -234 145 -280 176 -274 178 -503 244
-925 266 -104 6 -253 21 -330 33 -132 22 -163 23 -570 20 -465 -3 -571 -10
-758 -48 -406 -82 -548 -151 -753 -367 -49 -51 -124 -145 -167 -208 -72 -107
-78 -119 -79 -170 -2 -67 17 -99 72 -124 45 -20 111 -16 139 9 10 9 44 60 77
113 44 73 90 129 179 219 167 168 231 198 560 259 190 35 317 43 740 50 l380
7 145 -27 c110 -20 201 -28 375 -35 423 -17 543 -57 924 -309 97 -64 218 -143
269 -175 57 -36 128 -93 183 -147 49 -49 111 -100 139 -114 56 -28 124 -33
156 -10 12 8 24 12 26 9 7 -6 0 -124 -23 -373 -10 -118 -19 -244 -19 -279 l0
-63 -32 22 c-47 34 -171 29 -283 -9 -213 -74 -365 -233 -620 -650 -245 -401
-320 -457 -975 -727 -436 -179 -566 -243 -925 -450 -336 -194 -543 -290 -851
-395 -414 -141 -784 -202 -1409 -230 -718 -32 -1036 12 -1392 194 -351 180
-576 413 -1018 1051 -273 395 -463 645 -784 1029 -284 340 -394 496 -521 739
-180 345 -276 711 -320 1222 -5 66 -14 302 -20 525 -5 223 -17 553 -26 734
-26 521 -13 824 46 1071 87 366 402 1175 564 1449 123 206 227 280 496 350
131 35 263 55 405 62 66 4 121 7 122 8 5 3 530 -13 588 -18z m19862 -251 c356
-67 578 -443 743 -1255 29 -144 192 -1089 245 -1420 51 -320 56 -531 28 -1285
-14 -405 -15 -520 -4 -830 6 -198 17 -439 23 -535 15 -244 15 -1009 0 -1195
-23 -275 -52 -463 -101 -651 -166 -632 -512 -957 -1091 -1025 -146 -16 -510
-6 -710 21 -208 28 -340 50 -695 120 -480 94 -776 137 -1425 210 -506 57 -896
121 -1166 190 -312 80 -474 143 -875 338 -124 61 -327 156 -450 212 -338 154
-695 330 -779 385 -165 107 -331 319 -356 452 -13 73 -40 108 -88 119 -19 4
-57 31 -96 68 -80 77 -138 116 -235 163 -52 24 -73 39 -66 47 138 173 210 324
251 526 7 36 14 66 15 68 1 1 15 -4 31 -13 16 -8 46 -15 67 -15 34 0 47 9 133
90 370 353 805 535 1424 595 201 20 1097 38 1593 33 339 -4 394 -7 492 -26
276 -54 428 -131 865 -440 277 -196 440 -299 486 -308 66 -12 153 64 154 134
0 38 -27 85 -63 108 -17 11 -81 52 -142 90 -60 37 -181 120 -270 183 -258 184
-421 288 -560 356 -338 165 -469 181 -1410 171 -346 -4 -668 -9 -715 -11 -47
-2 -148 -7 -225 -10 -371 -16 -734 -80 -995 -175 -191 -69 -496 -237 -639
-353 l-44 -35 -29 29 c-17 17 -45 31 -66 35 l-37 6 -1 281 c-2 417 -37 919
-79 1119 -38 184 -141 344 -294 457 -71 53 -215 129 -286 151 -22 7 -43 15
-47 19 -4 4 34 31 85 61 248 147 609 397 1248 866 507 372 721 520 935 650
568 343 1404 650 2259 827 267 56 467 84 951 132 624 63 732 80 1364 211 371
77 493 88 647 59z m-12897 -5895 c0 -5 -5 -10 -11 -10 -5 0 -7 5 -4 10 3 6 8
10 11 10 2 0 4 -4 4 -10z m-136 -97 c-13 -27 -58 -127 -100 -223 -147 -338
-343 -711 -529 -1005 -45 -71 -169 -256 -274 -410 -222 -323 -317 -475 -461
-740 -120 -222 -844 -1529 -1062 -1918 -236 -421 -320 -612 -366 -828 -35
-161 -43 -244 -52 -564 -11 -390 -17 -427 -148 -960 -38 -154 -83 -359 -101
-455 -17 -96 -39 -197 -48 -225 -22 -68 -26 -165 -15 -320 6 -87 6 -134 -1
-143 -18 -22 -19 -109 -3 -141 21 -39 60 -69 102 -77 26 -5 44 0 79 20 87 52
106 136 87 391 -9 113 -8 131 6 141 8 6 12 15 9 21 -15 25 53 378 152 783 115
473 149 691 152 976 4 487 57 682 303 1113 48 85 149 265 223 400 75 135 269
487 433 781 163 294 352 636 420 760 179 328 255 452 545 885 336 503 421 646
617 1038 l111 222 -7 -140 c-9 -193 -39 -539 -92 -1070 -91 -911 -110 -1267
-94 -1739 23 -654 81 -1140 280 -2353 150 -917 178 -1117 240 -1698 47 -446
93 -750 156 -1045 36 -168 74 -305 170 -617 101 -327 144 -499 174 -688 19
-118 22 -164 17 -329 -4 -156 -9 -205 -26 -265 -57 -193 -153 -304 -311 -357
-44 -15 -84 -19 -200 -18 -232 0 -368 38 -795 216 -670 281 -961 355 -2025
513 -656 98 -801 124 -1355 245 -198 43 -493 104 -655 134 -573 108 -837 191
-1075 339 -461 286 -609 727 -455 1355 39 161 100 346 222 677 204 552 239
678 357 1270 166 834 236 1017 516 1350 190 227 285 390 350 601 19 63 51 165
70 227 65 212 139 333 351 572 148 168 390 428 702 757 337 356 485 516 526
570 20 27 67 59 168 114 77 42 185 103 241 136 232 137 443 238 837 399 406
167 613 281 753 418 104 101 165 183 314 425 141 227 207 318 291 398 81 78
181 126 263 127 l37 1 -24 -47z m5791 -85 c17 -36 32 -48 100 -82 103 -52 161
-100 230 -191 52 -67 59 -82 80 -177 108 -472 341 -947 753 -1533 58 -82 206
-286 328 -452 123 -165 274 -375 337 -465 526 -751 675 -1184 842 -2443 36
-267 78 -544 135 -885 70 -423 106 -731 117 -1004 7 -199 16 -226 80 -252 75
-32 160 7 182 83 5 18 5 107 0 210 -16 335 -37 506 -153 1220 -36 219 -88 565
-116 768 -130 952 -222 1301 -474 1805 -161 321 -281 502 -784 1182 -377 510
-559 787 -708 1081 -62 121 -137 287 -130 287 2 0 44 -24 93 -54 136 -82 367
-198 671 -336 l273 -125 164 -180 c369 -406 731 -747 1585 -1490 588 -512 817
-722 1130 -1035 374 -374 565 -591 820 -935 305 -411 549 -838 719 -1261 90
-225 114 -312 114 -419 1 -148 -19 -183 -269 -475 -272 -319 -333 -406 -609
-865 -395 -656 -651 -1007 -985 -1349 -192 -196 -361 -339 -551 -465 -367
-244 -643 -336 -1129 -376 -102 -8 -300 -26 -440 -40 -529 -51 -889 -57 -1130
-20 -341 52 -569 174 -664 354 -64 122 -69 156 -71 536 -2 187 -8 381 -15 430
-6 50 -47 254 -90 455 -104 483 -149 713 -220 1143 -33 197 -89 520 -125 718
-162 895 -229 1356 -265 1820 -11 148 -27 633 -30 904 -1 94 -3 188 -5 210 -1
22 -6 107 -10 188 -3 81 -8 158 -10 170 -2 12 -6 56 -10 97 -8 102 -60 463
-91 640 -61 344 -142 722 -273 1269 -39 162 -71 306 -71 320 -1 44 -36 108
-133 240 -52 69 -97 140 -100 158 -6 32 -6 32 102 89 59 31 160 93 224 138
130 91 436 329 506 393 25 23 48 42 51 42 3 0 14 -18 25 -41z"/>
</g>
</svg>
